<svg width="86" height="44" viewBox="0 0 86 44" fill="none" xmlns="http://www.w3.org/2000/svg">
<rect width="86" height="44" rx="22" fill="#7CDAA3"/>
<path d="M55.1824 20.0935C54.7307 20.0935 54.3642 19.7155 54.3642 19.2498C54.3642 16.0188 53.1447 12.9824 50.9301 10.6976C50.6105 10.368 50.6105 9.83362 50.9301 9.50403C51.2497 9.17444 51.7679 9.17444 52.0877 9.50403C54.6109 12.1072 56.0005 15.5689 56.0005 19.2498C56.0005 19.7155 55.634 20.0935 55.1824 20.0935Z" fill="white"/>
<path d="M32.8182 20.0935C32.3665 20.0935 32 19.7155 32 19.2497C32 15.5688 33.3898 12.1071 35.9141 9.505C36.2337 9.17542 36.752 9.17542 37.0716 9.505C37.3912 9.83459 37.3912 10.3691 37.0716 10.6987C34.856 12.9824 33.6363 16.0187 33.6363 19.2497C33.6363 19.7155 33.2698 20.0935 32.8182 20.0935Z" fill="white"/>
<path d="M44 35C41.7441 35 39.9092 33.1077 39.9092 30.7812C39.9092 30.3155 40.2757 29.9375 40.7273 29.9375C41.179 29.9375 41.5455 30.3155 41.5455 30.7812C41.5455 32.1775 42.6461 33.3125 44 33.3125C45.3537 33.3125 46.4545 32.1775 46.4545 30.7812C46.4545 30.3155 46.8211 29.9375 47.2727 29.9375C47.7243 29.9375 48.0909 30.3155 48.0909 30.7812C48.0909 33.1077 46.256 35 44 35Z" fill="white"/>
<path d="M52.9992 31.626H34.9995C33.9467 31.626 33.0903 30.7429 33.0903 29.6573C33.0903 29.0811 33.3336 28.5356 33.7581 28.1609C35.4172 26.7153 36.363 24.6139 36.363 22.3876V19.2509C36.363 14.9086 39.7885 11.376 43.9994 11.376C48.2101 11.376 51.6355 14.9086 51.6355 19.2509V22.3876C51.6355 24.6139 52.5813 26.7153 54.2297 28.1531C54.6649 28.5356 54.9082 29.0811 54.9082 29.6573C54.9082 30.7429 54.0519 31.626 52.9992 31.626ZM43.9994 13.0635C40.6905 13.0635 37.9993 15.8388 37.9993 19.2509V22.3876C37.9993 25.111 36.842 27.6828 34.8249 29.4412C34.7868 29.475 34.7267 29.5448 34.7267 29.6573C34.7267 29.8101 34.8511 29.9385 34.9995 29.9385H52.9992C53.1474 29.9385 53.2719 29.8101 53.2719 29.6573C53.2719 29.5448 53.2119 29.475 53.1758 29.4435C51.1565 27.6828 49.9992 25.111 49.9992 22.3876V19.2509C49.9992 15.8388 47.308 13.0635 43.9994 13.0635Z" fill="white"/>
<path d="M43.9988 13.0625C43.5472 13.0625 43.1807 12.6845 43.1807 12.2187V8.84375C43.1807 8.378 43.5472 8 43.9988 8C44.4505 8 44.817 8.378 44.817 8.84375V12.2187C44.817 12.6845 44.4505 13.0625 43.9988 13.0625Z" fill="white"/>
<circle cx="58" cy="15" r="12" fill="white" stroke="#7CDAA3" stroke-width="1.5"/>
<path d="M53 14.8L57.125 19L64 12" stroke="#7CDAA3" stroke-width="1.5" stroke-linecap="round"/>
</svg>
