<svg width="86" height="44" viewBox="0 0 86 44" fill="none" xmlns="http://www.w3.org/2000/svg">
<rect x="0.5" y="0.5" width="85" height="43" rx="21.5" fill="#F1FFF7" stroke="#7CDAA3"/>
<path d="M54.1824 21.0935C53.7307 21.0935 53.3642 20.7155 53.3642 20.2498C53.3642 17.0188 52.1447 13.9824 49.9301 11.6976C49.6105 11.368 49.6105 10.8336 49.9301 10.504C50.2497 10.1744 50.7679 10.1744 51.0877 10.504C53.6109 13.1072 55.0005 16.5689 55.0005 20.2498C55.0005 20.7155 54.634 21.0935 54.1824 21.0935Z" fill="#7CDAA3"/>
<path d="M31.8182 21.0935C31.3665 21.0935 31 20.7155 31 20.2497C31 16.5688 32.3898 13.1071 34.9141 10.505C35.2337 10.1754 35.752 10.1754 36.0716 10.505C36.3912 10.8346 36.3912 11.3691 36.0716 11.6987C33.856 13.9824 32.6363 17.0187 32.6363 20.2497C32.6363 20.7155 32.2698 21.0935 31.8182 21.0935Z" fill="#7CDAA3"/>
<path d="M43 36C40.7441 36 38.9092 34.1077 38.9092 31.7812C38.9092 31.3155 39.2757 30.9375 39.7273 30.9375C40.179 30.9375 40.5455 31.3155 40.5455 31.7812C40.5455 33.1775 41.6461 34.3125 43 34.3125C44.3537 34.3125 45.4545 33.1775 45.4545 31.7812C45.4545 31.3155 45.8211 30.9375 46.2727 30.9375C46.7243 30.9375 47.0909 31.3155 47.0909 31.7812C47.0909 34.1077 45.256 36 43 36Z" fill="#7CDAA3"/>
<path d="M51.9992 32.626H33.9995C32.9467 32.626 32.0903 31.7429 32.0903 30.6573C32.0903 30.0811 32.3336 29.5356 32.7581 29.1609C34.4172 27.7153 35.363 25.6139 35.363 23.3876V20.2509C35.363 15.9086 38.7885 12.376 42.9994 12.376C47.2101 12.376 50.6355 15.9086 50.6355 20.2509V23.3876C50.6355 25.6139 51.5813 27.7153 53.2297 29.1531C53.6649 29.5356 53.9082 30.0811 53.9082 30.6573C53.9082 31.7429 53.0519 32.626 51.9992 32.626ZM42.9994 14.0635C39.6905 14.0635 36.9993 16.8388 36.9993 20.2509V23.3876C36.9993 26.111 35.842 28.6828 33.8249 30.4412C33.7868 30.475 33.7267 30.5448 33.7267 30.6573C33.7267 30.8101 33.8511 30.9385 33.9995 30.9385H51.9992C52.1474 30.9385 52.2719 30.8101 52.2719 30.6573C52.2719 30.5448 52.2119 30.475 52.1758 30.4435C50.1565 28.6828 48.9992 26.111 48.9992 23.3876V20.2509C48.9992 16.8388 46.308 14.0635 42.9994 14.0635Z" fill="#7CDAA3"/>
<path d="M42.9988 14.0625C42.5472 14.0625 42.1807 13.6845 42.1807 13.2187V9.84375C42.1807 9.378 42.5472 9 42.9988 9C43.4505 9 43.817 9.378 43.817 9.84375V13.2187C43.817 13.6845 43.4505 14.0625 42.9988 14.0625Z" fill="#7CDAA3"/>
<circle cx="60" cy="16" r="11.25" fill="white" stroke="#7CDAA3" stroke-width="1.5"/>
<path d="M56 12L64 20" stroke="#7CDAA3" stroke-width="1.5" stroke-linecap="round"/>
<path d="M64 12L56 20" stroke="#7CDAA3" stroke-width="1.5" stroke-linecap="round"/>
</svg>
