<svg width="227" height="171" viewBox="0 0 227 171" fill="none" xmlns="http://www.w3.org/2000/svg">
<path d="M227 0H0V171H227V0Z" fill="url(#paint0_linear_1494:8267)"/>
<path fill-rule="evenodd" clip-rule="evenodd" d="M109.394 132.011C120.16 132.011 142.96 131.39 147.559 117.794C152.158 104.198 157.073 80.869 158.206 71.3994C145.754 75.9513 135.899 77.5253 108.381 77.5253C80.8618 77.5253 73.0261 76.2661 58.5555 71.3994C60.1823 83.6171 64.3812 103.152 69.2019 117.343C74.0226 131.535 98.62 132.011 109.394 132.011Z" fill="url(#paint1_radial_1494:8267)"/>
<path fill-rule="evenodd" clip-rule="evenodd" d="M105.817 93.7761C84.9415 93.6825 68.248 90.7728 61.1618 86.6463C61.1618 86.6463 60.5315 83.3877 60.2334 81.7031C60.046 80.6566 59.5861 79.3549 60.8466 78.4445C68.1628 73.1354 89.2682 71.5104 114.019 71.638C115.186 71.638 142.415 67.384 150.251 71.8847C153.129 73.5353 155.548 74.9136 156.655 77.2364C157.337 78.6657 156.485 81.9328 156.485 81.9328L155.369 87.5397C145.481 91.3683 127.442 93.8953 105.817 93.7932V93.7761Z" fill="url(#paint2_radial_1494:8267)"/>
<path fill-rule="evenodd" clip-rule="evenodd" d="M56.0687 65.7589L58.0362 80.027C58.0362 80.027 70.7181 86.6974 109.931 86.6974C145.226 86.6974 158.121 80.1376 158.121 80.1376L159.824 65.6738C142.869 69.0254 125.63 70.735 108.347 70.7787C66.7917 70.5064 56.0687 65.7589 56.0687 65.7589Z" fill="#FCF1CC"/>
<path d="M107.946 70.7696C136.598 70.7696 159.824 68.4003 159.824 65.4776C159.824 62.5549 136.598 60.1855 107.946 60.1855C79.2951 60.1855 56.0687 62.5549 56.0687 65.4776C56.0687 68.4003 79.2951 70.7696 107.946 70.7696Z" fill="#FFF8E8"/>
<path d="M107.946 70.7696C136.598 70.7696 159.824 68.4003 159.824 65.4776C159.824 62.5549 136.598 60.1855 107.946 60.1855C79.2951 60.1855 56.0687 62.5549 56.0687 65.4776C56.0687 68.4003 79.2951 70.7696 107.946 70.7696Z" fill="url(#paint3_radial_1494:8267)"/>
<path fill-rule="evenodd" clip-rule="evenodd" d="M103.449 112.953C101.626 103.934 91.2782 95.1455 80.3678 93.3162C72.1318 91.9379 66.2805 94.7626 64.4919 100.174L67.4559 111.234C68.7116 113.688 70.406 115.891 72.4554 117.735C82.6759 126.855 89.9581 126.243 89.9581 126.243C99.1991 126.668 105.11 121.121 103.449 112.953Z" fill="url(#paint4_radial_1494:8267)"/>
<path fill-rule="evenodd" clip-rule="evenodd" d="M113.525 112.953C115.339 103.934 125.687 95.1455 136.606 93.3162C144.842 91.9379 150.694 94.7626 152.482 100.174L149.518 111.234C148.262 113.688 146.568 115.891 144.519 117.735C134.298 126.855 127.016 126.243 127.016 126.243C117.766 126.668 111.864 121.121 113.525 112.953Z" fill="url(#paint5_radial_1494:8267)"/>
<path fill-rule="evenodd" clip-rule="evenodd" d="M83.8001 107.304C88.1353 108.231 91.2696 109.933 90.8097 111.09C90.3498 112.247 86.4489 112.434 82.1223 111.507C77.7956 110.58 74.6442 108.887 75.1127 107.729C75.5811 106.572 79.4649 106.377 83.8001 107.304Z" fill="url(#paint6_radial_1494:8267)"/>
<path fill-rule="evenodd" clip-rule="evenodd" d="M132.382 104.48C124.98 106.658 119.606 110.631 120.398 113.354C121.19 116.076 127.851 116.519 135.261 114.341C142.67 112.162 148.036 108.189 147.244 105.467C146.452 102.744 139.792 102.293 132.382 104.48Z" fill="url(#paint7_radial_1494:8267)"/>
<path fill-rule="evenodd" clip-rule="evenodd" d="M84.8052 104.48C92.2151 106.658 97.5809 110.631 96.7888 113.354C95.9967 116.076 89.3449 116.519 81.9265 114.341C74.5081 112.162 69.1508 108.189 69.9514 105.467C70.752 102.744 77.3954 102.293 84.8052 104.48Z" fill="url(#paint8_radial_1494:8267)"/>
<path d="M85.3246 110.29C88.2598 110.29 90.6392 107.486 90.6392 104.028C90.6392 100.569 88.2598 97.7656 85.3246 97.7656C82.3893 97.7656 80.0099 100.569 80.0099 104.028C80.0099 107.486 82.3893 110.29 85.3246 110.29Z" fill="#00263F"/>
<path d="M131.777 110.29C134.712 110.29 137.092 107.486 137.092 104.028C137.092 100.569 134.712 97.7656 131.777 97.7656C128.842 97.7656 126.462 100.569 126.462 104.028C126.462 107.486 128.842 110.29 131.777 110.29Z" fill="#00263F"/>
<path fill-rule="evenodd" clip-rule="evenodd" d="M135.405 105.525C135.611 105.609 135.777 105.769 135.866 105.973C135.955 106.176 135.961 106.406 135.882 106.614C135.822 106.772 135.717 106.909 135.579 107.007C135.441 107.105 135.277 107.16 135.107 107.164C134.938 107.169 134.771 107.122 134.628 107.032C134.486 106.941 134.373 106.81 134.305 106.655C134.237 106.5 134.217 106.328 134.247 106.162C134.278 105.995 134.357 105.842 134.475 105.72C134.593 105.599 134.745 105.516 134.91 105.481C135.076 105.446 135.248 105.462 135.405 105.525Z" fill="white"/>
<path d="M135.278 103.909C135.255 103.137 135.061 102.379 134.711 101.691C134.36 101.002 133.862 100.4 133.25 99.9268" stroke="white" stroke-width="2" stroke-miterlimit="10" stroke-linecap="round"/>
<path fill-rule="evenodd" clip-rule="evenodd" d="M83.8001 107.304C88.1353 108.231 91.2696 109.933 90.8097 111.09C90.3498 112.247 86.4489 112.434 82.1223 111.507C77.7956 110.58 74.6442 108.887 75.1127 107.729C75.5811 106.572 79.4649 106.377 83.8001 107.304Z" fill="url(#paint9_radial_1494:8267)"/>
<path fill-rule="evenodd" clip-rule="evenodd" d="M88.953 105.525C89.1125 105.582 89.251 105.686 89.3509 105.823C89.4508 105.96 89.5075 106.124 89.5137 106.293C89.52 106.462 89.4755 106.63 89.386 106.773C89.2965 106.917 89.1661 107.031 89.0114 107.101C88.8567 107.17 88.6847 107.192 88.5176 107.163C88.3505 107.134 88.1958 107.056 88.0734 106.939C87.9509 106.822 87.8663 106.671 87.8303 106.505C87.7943 106.339 87.8086 106.167 87.8714 106.01C87.9533 105.804 88.112 105.639 88.3139 105.548C88.5158 105.458 88.745 105.449 88.953 105.525Z" fill="white"/>
<path fill-rule="evenodd" clip-rule="evenodd" d="M132.978 107.304C128.651 108.231 125.508 109.933 125.977 111.09C126.445 112.247 130.329 112.434 134.664 111.507C138.999 110.58 142.134 108.887 141.665 107.729C141.197 106.572 137.313 106.377 132.978 107.304Z" fill="url(#paint10_radial_1494:8267)"/>
<path d="M101.184 116.364H108.381C108.381 116.364 114.487 118.015 115.586 116.364C116.071 121.469 113.959 126.88 108.363 126.88C103.611 126.88 100.656 122.626 101.184 116.671V116.364Z" fill="url(#paint11_radial_1494:8267)"/>
<path d="M102.887 111.625H113.959C113.959 111.625 113.21 122.762 108.432 122.762C103.654 122.762 102.887 111.625 102.887 111.625Z" fill="#FF525A"/>
<path d="M102.878 111.625L113.516 111.744C113.516 111.744 113.84 121.809 108.329 121.809C102.819 121.809 102.878 112.621 102.878 111.6V111.625Z" fill="url(#paint12_linear_1494:8267)"/>
<path d="M103.841 118.246C104.693 117.029 106.158 114.842 108.193 114.842C110.57 114.842 112.256 117.191 113.065 118.646C113.244 118.952 115.467 117.642 114.981 116.774C113.678 114.443 111.396 111.669 108.168 111.669C105.434 111.669 103.381 114.221 102.069 116.093C100.57 118.348 103.577 118.68 103.841 118.246Z" fill="url(#paint13_linear_1494:8267)"/>
<path fill-rule="evenodd" clip-rule="evenodd" d="M106.95 67.46C107.316 50.3161 108.585 33.0361 109.232 27.0889C109.334 26.5604 109.521 26.0518 109.786 25.583C110.834 26.2126 111.694 28.6715 112.733 27.9483C111.77 33.2403 113.644 47.4319 114.837 67.3154C114.837 67.3154 113.567 68.3789 110.237 68.2172C107.52 68.0556 106.95 67.46 106.95 67.46Z" fill="url(#paint14_linear_1494:8267)"/>
<path fill-rule="evenodd" clip-rule="evenodd" d="M107.316 67.2814C107.316 67.2814 107.026 67.6643 104.608 67.6643C103.62 67.7287 102.629 67.6222 101.678 67.3495C101.456 57.5992 100.596 46.93 99.0544 47.0236C100.53 46.8421 102.026 46.9549 103.458 47.3554C103.458 47.3554 105.877 58.9605 107.316 67.2814Z" fill="url(#paint15_linear_1494:8267)"/>
<path fill-rule="evenodd" clip-rule="evenodd" d="M48.4799 94.0394C48.4799 94.0394 63.2996 92.5165 69.7726 73.5008C77.7191 50.1886 96.6866 48.6316 103.185 47.5255C107.154 46.8449 68.3247 37.6816 57.6868 58.5861C51.3161 71.0845 53.2154 88.6368 48.4799 94.0565V94.0394Z" fill="url(#paint16_linear_1494:8267)"/>
<path fill-rule="evenodd" clip-rule="evenodd" d="M177.497 78.4612C177.497 78.4612 172.293 53.6345 147.499 48.2829C122.408 42.8717 110.97 34.1169 109.624 26.3234C108.9 22.1544 135.388 17.2623 156.792 31.4283C171.526 41.1616 178.323 62.7637 177.497 78.4952V78.4612Z" fill="url(#paint17_linear_1494:8267)"/>
<path d="M88.8253 103.909C88.8025 103.137 88.609 102.379 88.2585 101.691C87.908 101.002 87.4093 100.4 86.7982 99.9268" stroke="white" stroke-width="2" stroke-miterlimit="10" stroke-linecap="round"/>
<path fill-rule="evenodd" clip-rule="evenodd" d="M48.4799 94.0398C48.4799 94.0398 75.4535 97.4431 84.8734 81.3372C93.5779 66.465 90.4692 57.1316 103.483 47.4153C103.483 46.6666 76.9355 44.9479 68.8017 65.6737C62.8397 80.8182 61.3322 87.3184 48.4799 94.0398Z" fill="url(#paint18_linear_1494:8267)"/>
<path fill-rule="evenodd" clip-rule="evenodd" d="M109.215 27.2173C109.215 27.2173 110.595 57.0382 138.608 64.4573C164.798 71.3914 174.839 69.0007 177.497 78.4617C177.659 79.0317 176.645 46.9136 148.896 37.929C130.653 31.9733 115.995 35.5382 109.718 25.6688C109.718 25.6688 109.718 25.5837 109.513 26.1367C109.382 26.4875 109.283 26.849 109.215 27.2173Z" fill="url(#paint19_linear_1494:8267)"/>
<path d="M108.449 122.746C111.525 122.746 114.019 119.901 114.019 116.391C114.019 112.881 111.525 110.035 108.449 110.035C105.372 110.035 102.879 112.881 102.879 116.391C102.879 119.901 105.372 122.746 108.449 122.746Z" stroke="url(#paint20_radial_1494:8267)" stroke-width="4" stroke-miterlimit="10"/>
<path d="M112.528 111.022C111.448 109.974 110.005 109.382 108.5 109.371C107.922 109.374 107.348 109.462 106.796 109.635" stroke="white" stroke-miterlimit="10" stroke-linecap="round"/>
<defs>
<linearGradient id="paint0_linear_1494:8267" x1="146.683" y1="191.643" x2="80.7235" y2="-19.8277" gradientUnits="userSpaceOnUse">
<stop stop-color="#FDE2BB"/>
<stop offset="1" stop-color="#FEEEFE"/>
</linearGradient>
<radialGradient id="paint1_radial_1494:8267" cx="0" cy="0" r="1" gradientUnits="userSpaceOnUse" gradientTransform="translate(109.133 101.567) rotate(-1.31553) scale(150.008 44.7987)">
<stop stop-color="#FFB98F"/>
<stop offset="0.1" stop-color="#FECDA5"/>
<stop offset="0.21" stop-color="#FDDDB6"/>
<stop offset="0.36" stop-color="#FCE9C3"/>
<stop offset="0.55" stop-color="#FCEFCA"/>
<stop offset="1" stop-color="#FCF1CC"/>
</radialGradient>
<radialGradient id="paint2_radial_1494:8267" cx="0" cy="0" r="1" gradientUnits="userSpaceOnUse" gradientTransform="translate(109.005 82.4734) rotate(-179.393) scale(46.6186 10.2519)">
<stop stop-color="#FF525A"/>
<stop offset="0.18" stop-color="#FF525A" stop-opacity="0.77"/>
<stop offset="0.4" stop-color="#FF525A" stop-opacity="0.5"/>
<stop offset="0.6" stop-color="#FF525A" stop-opacity="0.28"/>
<stop offset="0.78" stop-color="#FF525A" stop-opacity="0.13"/>
<stop offset="0.92" stop-color="#FF525A" stop-opacity="0.03"/>
<stop offset="1" stop-color="#FF525A" stop-opacity="0"/>
</radialGradient>
<radialGradient id="paint3_radial_1494:8267" cx="0" cy="0" r="1" gradientUnits="userSpaceOnUse" gradientTransform="translate(108.021 65.5002) rotate(-0.800443) scale(51.9382 8.34327)">
<stop stop-color="#FFA78A"/>
<stop offset="0.13" stop-color="#FFA88B" stop-opacity="0.98"/>
<stop offset="0.25" stop-color="#FFAC8E" stop-opacity="0.94"/>
<stop offset="0.38" stop-color="#FFB193" stop-opacity="0.86"/>
<stop offset="0.5" stop-color="#FEB99B" stop-opacity="0.75"/>
<stop offset="0.63" stop-color="#FEC4A4" stop-opacity="0.61"/>
<stop offset="0.75" stop-color="#FDD0AF" stop-opacity="0.44"/>
<stop offset="0.87" stop-color="#FDDFBD" stop-opacity="0.24"/>
<stop offset="0.99" stop-color="#FCF0CC" stop-opacity="0.01"/>
<stop offset="1" stop-color="#FCF1CD" stop-opacity="0"/>
</radialGradient>
<radialGradient id="paint4_radial_1494:8267" cx="0" cy="0" r="1" gradientUnits="userSpaceOnUse" gradientTransform="translate(84.0732 109.567) rotate(24.2387) scale(21.3278 9.99404)">
<stop stop-color="#FF525A"/>
<stop offset="0.16" stop-color="#FF525A" stop-opacity="0.76"/>
<stop offset="0.32" stop-color="#FF525A" stop-opacity="0.53"/>
<stop offset="0.49" stop-color="#FF525A" stop-opacity="0.34"/>
<stop offset="0.64" stop-color="#FF525A" stop-opacity="0.19"/>
<stop offset="0.78" stop-color="#FF525A" stop-opacity="0.09"/>
<stop offset="0.9" stop-color="#FF525A" stop-opacity="0.02"/>
<stop offset="1" stop-color="#FF525A" stop-opacity="0"/>
</radialGradient>
<radialGradient id="paint5_radial_1494:8267" cx="0" cy="0" r="1" gradientUnits="userSpaceOnUse" gradientTransform="translate(-10196.2 6801.45) rotate(155.761) scale(982.53 391.108)">
<stop stop-color="#FF525A"/>
<stop offset="0.16" stop-color="#FF525A" stop-opacity="0.76"/>
<stop offset="0.32" stop-color="#FF525A" stop-opacity="0.53"/>
<stop offset="0.49" stop-color="#FF525A" stop-opacity="0.34"/>
<stop offset="0.64" stop-color="#FF525A" stop-opacity="0.19"/>
<stop offset="0.78" stop-color="#FF525A" stop-opacity="0.09"/>
<stop offset="0.9" stop-color="#FF525A" stop-opacity="0.02"/>
<stop offset="1" stop-color="#FF525A" stop-opacity="0"/>
</radialGradient>
<radialGradient id="paint6_radial_1494:8267" cx="0" cy="0" r="1" gradientUnits="userSpaceOnUse" gradientTransform="translate(82.9569 109.406) scale(5.89383 5.88763)">
<stop stop-color="#FF525A"/>
<stop offset="1" stop-color="#FF525A"/>
</radialGradient>
<radialGradient id="paint7_radial_1494:8267" cx="0" cy="0" r="1" gradientUnits="userSpaceOnUse" gradientTransform="translate(133.243 109.112) rotate(-15.9295) scale(14.3742 5.20647)">
<stop stop-color="#FF525A"/>
<stop offset="0.17" stop-color="#FF525A" stop-opacity="0.78"/>
<stop offset="0.4" stop-color="#FF525A" stop-opacity="0.5"/>
<stop offset="0.6" stop-color="#FF525A" stop-opacity="0.29"/>
<stop offset="0.78" stop-color="#FF525A" stop-opacity="0.13"/>
<stop offset="0.92" stop-color="#FF525A" stop-opacity="0.04"/>
<stop offset="1" stop-color="#FF525A" stop-opacity="0"/>
</radialGradient>
<radialGradient id="paint8_radial_1494:8267" cx="0" cy="0" r="1" gradientUnits="userSpaceOnUse" gradientTransform="translate(83.9656 109.323) rotate(-164.071) scale(14.3742 5.20647)">
<stop stop-color="#FF525A"/>
<stop offset="0.21" stop-color="#FF525A" stop-opacity="0.73"/>
<stop offset="0.42" stop-color="#FF525A" stop-opacity="0.47"/>
<stop offset="0.61" stop-color="#FF525A" stop-opacity="0.27"/>
<stop offset="0.78" stop-color="#FF525A" stop-opacity="0.12"/>
<stop offset="0.91" stop-color="#FF525A" stop-opacity="0.03"/>
<stop offset="1" stop-color="#FF525A" stop-opacity="0"/>
</radialGradient>
<radialGradient id="paint9_radial_1494:8267" cx="0" cy="0" r="1" gradientUnits="userSpaceOnUse" gradientTransform="translate(82.9569 109.406) scale(5.89383 5.88763)">
<stop stop-color="#FF525A"/>
<stop offset="1" stop-color="#FF525A"/>
</radialGradient>
<radialGradient id="paint10_radial_1494:8267" cx="0" cy="0" r="1" gradientUnits="userSpaceOnUse" gradientTransform="translate(2906.56 931.299) scale(109.205 37.2218)">
<stop stop-color="#FF525A"/>
<stop offset="1" stop-color="#FF525A"/>
</radialGradient>
<radialGradient id="paint11_radial_1494:8267" cx="0" cy="0" r="1" gradientUnits="userSpaceOnUse" gradientTransform="translate(108.53 119.09) scale(7.94849 7.27845)">
<stop stop-color="#FF0127"/>
<stop offset="0.33" stop-color="#FF0127" stop-opacity="0.65"/>
<stop offset="0.79" stop-color="#FF0127" stop-opacity="0.19"/>
<stop offset="1" stop-color="#FF0127" stop-opacity="0"/>
</radialGradient>
<linearGradient id="paint12_linear_1494:8267" x1="108.202" y1="112.51" x2="108.21" y2="121.197" gradientUnits="userSpaceOnUse">
<stop stop-color="#E81B00"/>
<stop offset="1" stop-color="#FF0127" stop-opacity="0"/>
</linearGradient>
<linearGradient id="paint13_linear_1494:8267" x1="108.415" y1="111.788" x2="108.406" y2="113.532" gradientUnits="userSpaceOnUse">
<stop stop-color="#CD0017"/>
<stop offset="0.02" stop-color="#CD0017" stop-opacity="0.96"/>
<stop offset="0.13" stop-color="#CD0017" stop-opacity="0.71"/>
<stop offset="0.25" stop-color="#CD0017" stop-opacity="0.49"/>
<stop offset="0.36" stop-color="#CD0017" stop-opacity="0.31"/>
<stop offset="0.48" stop-color="#CD0017" stop-opacity="0.18"/>
<stop offset="0.59" stop-color="#CD0017" stop-opacity="0.08"/>
<stop offset="0.71" stop-color="#CD0017" stop-opacity="0.02"/>
<stop offset="0.83" stop-color="#CD0017" stop-opacity="0"/>
</linearGradient>
<linearGradient id="paint14_linear_1494:8267" x1="110.893" y1="66.8219" x2="111.539" y2="46.9554" gradientUnits="userSpaceOnUse">
<stop stop-color="#53A66E"/>
<stop offset="0.31" stop-color="#5DB378"/>
<stop offset="0.9" stop-color="#77D693"/>
<stop offset="0.92" stop-color="#78D794"/>
</linearGradient>
<linearGradient id="paint15_linear_1494:8267" x1="103.16" y1="66.0733" x2="103.202" y2="51.0054" gradientUnits="userSpaceOnUse">
<stop stop-color="#53A66E"/>
<stop offset="0.36" stop-color="#5EB579"/>
<stop offset="1" stop-color="#78D794"/>
</linearGradient>
<linearGradient id="paint16_linear_1494:8267" x1="47.5216" y1="93.2801" x2="92.1872" y2="38.1825" gradientUnits="userSpaceOnUse">
<stop stop-color="#8FD399"/>
<stop offset="1" stop-color="#8FD399"/>
</linearGradient>
<linearGradient id="paint17_linear_1494:8267" x1="8837.84" y1="6490.3" x2="14851.8" y2="7697.66" gradientUnits="userSpaceOnUse">
<stop stop-color="#8FD399"/>
<stop offset="1" stop-color="#8FD399"/>
</linearGradient>
<linearGradient id="paint18_linear_1494:8267" x1="55.0807" y1="99.4084" x2="99.7142" y2="44.3505" gradientUnits="userSpaceOnUse">
<stop stop-color="#F4CA37" stop-opacity="0.2"/>
<stop offset="1" stop-color="#F4CA37"/>
</linearGradient>
<linearGradient id="paint19_linear_1494:8267" x1="175.66" y1="49.9648" x2="111.003" y2="54.2298" gradientUnits="userSpaceOnUse">
<stop stop-color="#FFCA00" stop-opacity="0.6"/>
<stop offset="1" stop-color="#FFCA00" stop-opacity="0.2"/>
</linearGradient>
<radialGradient id="paint20_radial_1494:8267" cx="0" cy="0" r="1" gradientUnits="userSpaceOnUse" gradientTransform="translate(1733.94 2163.01) scale(100.486 114.654)">
<stop stop-color="#FF525A"/>
<stop offset="1" stop-color="#FF525A"/>
</radialGradient>
</defs>
</svg>
